Coordinates
version=1
nRows=10
nColumns=63
inDegrees=yes

Units are S.I. units (second, meters, Newtons, ...)
If the header above contains a line with 'inDegrees', this indicates whether rotational values are in degrees (yes) or radians (no).

endheader
time	pelvis_tilt	pelvis_list	pelvis_rotation	pelvis_tx	pelvis_ty	pelvis_tz	hip_flexion_r	hip_adduction_r	hip_rotation_r	knee_angle_r	knee_angle_r_beta	ankle_angle_r	subtalar_angle_r	mtp_angle_r	hip_flexion_l	hip_adduction_l	hip_rotation_l	knee_angle_l	knee_angle_l_beta	ankle_angle_l	subtalar_angle_l	mtp_angle_l	L5_S1_Flex_Ext	L5_S1_Lat_Bending	L5_S1_axial_rotation	L4_L5_Flex_Ext	L4_L5_Lat_Bending	L4_L5_axial_rotation	L3_L4_Flex_Ext	L3_L4_Lat_Bending	L3_L4_axial_rotation	L2_L3_Flex_Ext	L2_L3_Lat_Bending	L2_L3_axial_rotation	L1_L2_Flex_Ext	L1_L2_Lat_Bending	L1_L2_axial_rotation	L1_T12_Flex_Ext	L1_T12_Lat_Bending	L1_T12_axial_rotation	Abs_r3	Abs_r2	Abs_r1	Abs_t1	Abs_t2	neck_flexion	neck_bending	neck_rotation	arm_flex_r	arm_add_r	arm_rot_r	elbow_flex_r	pro_sup_r	wrist_flex_r	wrist_dev_r	arm_flex_l	arm_add_l	arm_rot_l	elbow_flex_l	pro_sup_l	wrist_flex_l	wrist_dev_l
      9.76666667	      5.12366307	     -1.19553209	    179.14352838	      2.45452356	      0.88837700	      0.58686725	     15.59485527	     -1.11972194	     -3.84685969	     24.99781627	      0.43629420	     19.18640075	     -8.33199239	      0.00000000	      7.89582347	      3.02154485	      2.64253446	     11.80307017	      0.20600244	     14.61514301	    -18.11540698	      0.00000000	      0.00269050	     -0.19166612	     -0.52357025	      0.00499653	     -0.25491594	     -0.55629340	      0.00442022	     -0.46601701	     -0.55629340	      0.00307497	     -0.46601701	     -0.45812397	      0.00249840	     -0.39084556	     -0.42540083	      0.00153735	     -0.29689082	     -0.39267769	      0.01921798	     -2.16816550	     -2.91194069	      0.00000000	      0.00000000	      0.00000000	      0.00000000	      0.00000000	     -7.08186855	     -0.41973561	    -15.04967172	     26.68918052	     50.67707232	      0.00000000	      5.00000014	     -5.82106472	    -12.09598386	     36.06322851	     19.48942048	     61.88014218	      0.00000000	      5.00000014
      9.80000000	      5.21218370	     -1.12215788	    179.15301900	      2.45432213	      0.88840121	      0.58777730	     15.73535818	     -1.15064406	     -4.30768207	     25.13023304	      0.43860531	     19.23810964	     -8.20555674	      0.00000000	      7.99899366	      2.99705131	      2.86997463	     11.79088603	      0.20578978	     14.01934779	    -18.01173158	      0.00000000	      0.00249961	     -0.18347974	     -0.58273095	      0.00464203	     -0.24402805	     -0.61915164	      0.00410662	     -0.44611263	     -0.61915164	      0.00285681	     -0.44611263	     -0.50988958	      0.00232114	     -0.37415188	     -0.47346890	      0.00142828	     -0.28421011	     -0.43704822	      0.01785449	     -2.07555948	     -3.24097474	      0.00000000	      0.00000000	      0.00000000	      0.00000000	      0.00000000	     -6.98263070	     -0.69537621	    -14.27808150	     26.70737161	     51.49167312	      0.00000000	      5.00000014	     -6.12529055	    -12.00427532	     35.70843955	     19.67340404	     61.19308547	      0.00000000	      5.00000014
      9.83333333	      5.33699495	     -1.02155565	    178.89523713	      2.45416293	      0.88846966	      0.58861894	     15.92334843	     -1.06593438	     -4.46628863	     25.20535513	      0.43991644	     19.27977481	     -8.20457871	      0.00000000	      8.18093095	      2.92121440	      2.62360149	     11.82786861	      0.20643525	     13.31144495	    -17.85516459	      0.00000000	      0.00319285	     -0.17177188	     -0.61973315	      0.00592944	     -0.22845660	     -0.65846647	      0.00524553	     -0.41764614	     -0.65846647	      0.00364910	     -0.41764614	     -0.54226650	      0.00296488	     -0.35027721	     -0.50353318	      0.00182439	     -0.26607464	     -0.46479986	      0.02280619	     -1.94311784	     -3.44676984	      0.00000000	      0.00000000	      0.00000000	      0.00000000	      0.00000000	     -6.78713082	     -0.84980142	    -14.18408339	     26.70593297	     51.52284287	      0.00000000	      5.00000014	     -6.40981987	    -11.86716801	     35.68914986	     19.70975589	     61.16915131	      0.00000000	      5.00000014
      9.86666667	      5.49030063	     -0.93609769	    178.62716089	      2.45396910	      0.88844985	      0.58945372	     16.11308012	     -0.98374048	     -4.56644218	     25.22570936	      0.44027168	     19.46508121	     -8.17111810	      0.00000000	      8.38598362	      2.85387746	      2.43624821	     11.87274934	      0.20721857	     12.71336283	    -17.72324927	      0.00000000	      0.00399391	     -0.16383474	     -0.66283733	      0.00741708	     -0.21790021	     -0.70426466	      0.00656159	     -0.39834780	     -0.70426466	      0.00456464	     -0.39834780	     -0.57998266	      0.00370874	     -0.33409181	     -0.53855533	      0.00228212	     -0.25378002	     -0.49712800	      0.02852807	     -1.85333139	     -3.68650236	      0.00000000	      0.00000000	      0.00000000	      0.00000000	      0.00000000	     -6.57817843	     -0.99591652	    -14.10147189	     26.71828529	     51.54663746	      0.00000000	      5.00000014	     -6.73520333	    -11.72738887	     35.66133911	     19.72008139	     61.14638393	      0.00000000	      5.00000014
      9.90000000	      5.65000844	     -0.89844074	    178.37202513	      2.45376747	      0.88829605	      0.59036982	     16.35074601	     -1.32377070	     -6.19356424	     25.43471550	      0.44391953	     20.35786251	     -5.70042669	      0.00000000	      8.64720763	      2.83686989	      2.10159048	     12.06028932	      0.21049176	     12.33406156	    -17.65135155	      0.00000000	      0.00281271	     -0.16430795	     -0.72238764	      0.00522348	     -0.21852958	     -0.76753686	      0.00462100	     -0.39949835	     -0.76753686	      0.00321464	     -0.39949835	     -0.63208918	      0.00261188	     -0.33505678	     -0.58693996	      0.00160718	     -0.25451302	     -0.54179073	      0.02009088	     -1.85868441	     -4.01770332	      0.00000000	      0.00000000	      0.00000000	      0.00000000	      0.00000000	     -6.20157063	     -1.96220174	    -10.17148342	     26.24636097	     52.53506441	      0.00000000	      5.00000014	     -8.29761036	    -10.61586192	     26.50128321	     20.54768232	     58.36006747	      0.00000000	      5.00000014
      9.93333333	      5.74321267	     -0.87411471	    178.10606569	      2.45357583	      0.88815599	      0.59063679	     16.45351572	     -1.31850048	     -6.36102675	     25.42318142	      0.44371822	     20.75702111	     -5.27920437	      0.00000000	      8.86063507	      2.77895612	      2.09097550	     12.37269539	      0.21594427	     12.34174712	    -17.63617819	      0.00000000	      0.00271361	     -0.16421378	     -0.71500098	      0.00503945	     -0.21840433	     -0.75968854	      0.00445819	     -0.39926939	     -0.75968854	      0.00310139	     -0.39926939	     -0.62562586	      0.00251986	     -0.33486474	     -0.58093829	      0.00155056	     -0.25436715	     -0.53625073	      0.01938306	     -1.85761915	     -3.97662094	      0.00000000	      0.00000000	      0.00000000	      0.00000000	      0.00000000	     -6.06091836	     -2.03937679	    -10.12142702	     26.15814620	     52.44544259	      0.00000000	      5.00000014	     -8.49950588	    -10.50665725	     26.21921649	     20.58452964	     58.09085365	      0.00000000	      5.00000014
      9.96666667	      5.78867565	     -0.94089824	    177.96254265	      2.45334992	      0.88805221	      0.59076174	     16.47398659	     -1.50798207	     -6.98978980	     25.41794422	      0.44362682	     21.37157173	     -4.26755430	      0.00000000	      9.03625292	      2.82899879	      2.47427581	     12.71849370	      0.22197959	     12.56716825	    -17.74872869	      0.00000000	      0.00185815	     -0.17360025	     -0.69042634	      0.00345077	     -0.23088833	     -0.73357799	      0.00305275	     -0.42209164	     -0.73357799	      0.00212368	     -0.42209164	     -0.60412305	      0.00172548	     -0.35400562	     -0.56097140	      0.00106175	     -0.26890678	     -0.51781976	      0.01327258	     -1.96380072	     -3.83994419	      0.00000000	      0.00000000	      0.00000000	      0.00000000	      0.00000000	     -6.00494466	     -2.12834643	     -9.79930858	     26.05380541	     52.10914993	      0.00000000	      5.00000014	     -8.62576314	    -10.37457507	     25.50970306	     20.59724547	     57.22765115	      0.00000000	      5.00000014
     10.00000000	      5.81364300	     -1.12459460	    178.06510430	      2.45326562	      0.88805289	      0.59086291	     16.45389241	     -1.79858232	     -7.48181709	     25.38532405	      0.44305749	     21.88483970	     -3.71357496	      0.00000000	      9.22688104	      3.02060988	      3.26026560	     13.04492052	      0.22767681	     12.85596583	    -17.90718054	      0.00000000	      0.00272967	     -0.19705390	     -0.68726830	      0.00506928	     -0.26208168	     -0.73022257	      0.00448458	     -0.47911685	     -0.73022257	      0.00311974	     -0.47911685	     -0.60135976	      0.00253478	     -0.40183231	     -0.55840549	      0.00155974	     -0.30523649	     -0.51545122	      0.01949779	     -2.22911310	     -3.82238010	      0.00000000	      0.00000000	      0.00000000	      0.00000000	      0.00000000	     -5.99539099	     -2.20163074	     -9.15080456	     25.94135843	     51.84076787	      0.00000000	      5.00000014	     -8.69122761	    -10.34188588	     24.75706789	     20.67154044	     56.43532807	      0.00000000	      5.00000014
     10.03333333	      5.82079947	     -1.30719395	    178.28839455	      2.45336332	      0.88818934	      0.59120697	     16.40492192	     -2.14039271	     -8.11765691	     25.35122998	      0.44246243	     22.27695770	     -3.06316848	      0.00000000	      9.46885379	      3.23173572	      4.14243275	     13.41977105	      0.23421919	     13.26385884	    -18.00413800	      0.00000000	      0.00259139	     -0.21726034	     -0.69990960	      0.00481248	     -0.28895625	     -0.74365395	      0.00425740	     -0.52824678	     -0.74365395	      0.00296170	     -0.52824678	     -0.61242090	      0.00240637	     -0.44303728	     -0.56867655	      0.00148072	     -0.33653626	     -0.52493220	      0.01851006	     -2.45769237	     -3.89268721	      0.00000000	      0.00000000	      0.00000000	      0.00000000	      0.00000000	     -5.91999243	     -2.32690089	     -8.30174003	     25.70053569	     51.48313089	      0.00000000	      5.00000014	     -8.67901396	    -10.29839752	     24.16782563	     20.70746115	     55.66129647	      0.00000000	      5.00000014
     10.06666667	      5.82856650	     -1.64200428	    178.02556004	      2.45364805	      0.88838900	      0.59128642	     16.51617503	     -2.55410202	     -8.28360741	     25.49013196	      0.44488673	     22.64833625	     -2.24496798	      0.00000000	      9.56134679	      3.52252052	      4.19556667	     13.43466250	      0.23447909	     13.65643196	    -17.93192076	      0.00000000	      0.00262034	     -0.25179034	     -0.62805044	      0.00486622	     -0.33488115	     -0.66730359	      0.00430495	     -0.61220303	     -0.66730359	      0.00299478	     -0.61220303	     -0.54954413	      0.00243324	     -0.51345086	     -0.51029098	      0.00149726	     -0.39002324	     -0.47103783	      0.01871679	     -2.84830268	     -3.49302811	      0.00000000	      0.00000000	      0.00000000	      0.00000000	      0.00000000	     -5.86300836	     -2.32175247	     -8.11167938	     25.57326679	     51.80336706	      0.00000000	      5.00000014	     -8.57526420	    -10.30146560	     23.78846922	     20.68629785	     56.05977300	      0.00000000	      5.00000014
